<svg width="188" height="60" viewBox="0 0 188 60" fill="none" xmlns="http://www.w3.org/2000/svg">
<path d="M91.6469 1.54122C117.56 -0.609457 141.268 0.670531 158.646 4.46673C167.338 6.36552 174.417 8.88813 179.393 11.9051C184.38 14.9292 187.16 18.3883 187.471 22.1353C187.782 25.8824 185.61 29.7532 181.19 33.5582C176.78 37.3541 170.213 41.0084 161.953 44.3141C145.439 50.9232 122.266 56.094 96.353 58.2447C70.4398 60.3954 46.7317 59.1154 29.3542 55.3192C20.6625 53.4204 13.5831 50.8987 8.60738 47.8818C3.61992 44.8576 0.840355 41.3977 0.529364 37.6506C0.218483 33.9036 2.38969 30.0336 6.81027 26.2287C11.2205 22.4327 17.7872 18.7775 26.047 15.4718C42.5609 8.8628 65.7337 3.69189 91.6469 1.54122Z" stroke="white"/>
</svg>
